<svg xmlns="http://www.w3.org/2000/svg" xmlns:xlink="http://www.w3.org/1999/xlink" viewBox="0 0 150 100"><defs><path id="a" d="M0 0h150v100H0z"/></defs><g fill="none" fill-rule="evenodd" opacity=".6" transform="matrix(1 0 0 -1 0 100)"><mask id="b" fill="#fff"><use xlink:href="#a" transform="matrix(1 0 0 -1 0 100)"/></mask><g mask="url(#b)"><g transform="translate(-8 1.9)"><path stroke="navy" stroke-dasharray="1 8" stroke-linecap="round" stroke-linejoin="round" stroke-width="3" d="M121.3 23.6v74M71 1.6l.3 96M52 60.6l.5 37" opacity=".3"/><path stroke="navy" stroke-dasharray="1 8" stroke-linecap="round" stroke-linejoin="round" stroke-width="3" d="m93 51.6.5 28m-87 1H88m-81-34h135.3m4 4v47M6.4 11.6h92.8"/><circle cx="12" cy="47.1" r="12" fill="#FFC107"/><path fill="#F88E86" d="M135 72.3 146.2 61l11.3 11.3-11.3 11.3zm-107-61L39.2 0l11.3 11.3-11.3 11.3z"/><rect width="25.9" height="11" x="42.9" y="42.1" fill="#66DBFF" rx="5.5"/><rect width="25.9" height="11" x="57.9" y="75.1" fill="#94CF96" rx="5.5"/></g></g></g></svg>