<svg xmlns="http://www.w3.org/2000/svg" xmlns:xlink="http://www.w3.org/1999/xlink" viewBox="0 0 150 100"><defs><path id="a" d="M0 0h150v100H0z"/></defs><g fill="none" fill-rule="evenodd" opacity=".6"><mask id="b" fill="#fff"><use xlink:href="#a" transform="matrix(1 0 0 -1 0 100)"/></mask><g mask="url(#b)"><g transform="matrix(-1 0 0 1 148 1)"><path stroke="navy" stroke-dasharray="1 8" stroke-linecap="round" stroke-linejoin="round" stroke-width="3" d="m115 55.5-.2 39M41 21.5l-.2 73" opacity=".3"/><path stroke="navy" stroke-dasharray="1 8" stroke-linecap="round" stroke-linejoin="round" stroke-width="3" d="M0 61.5h138M0 34.5h147M.5 6.5H64m4 5v87"/><circle cx="22.5" cy="62" r="12" fill="#94CF96"/><rect width="26" height="11" x="32.5" fill="#FFC107" rx="5.5"/><path fill="#FFC107" d="M56.7 95.2 68 84l11.3 11.3L68 106.5z"/><path fill="#99E7FF" d="M115.7 34.2 127 23l11.3 11.3L127 45.5z"/><rect width="26" height="11" x="76.5" y="56" fill="#F88E86" rx="5.5"/></g></g></g></svg>