<svg xmlns="http://www.w3.org/2000/svg" viewBox="0 0 48 48"><g transform="translate(0 -33)"><rect width="22.86" height="4.54" x="12.57" y="75.46" fill="#4c99d7" rx="2.29"/><path fill="#b2d3ee" d="M23.71 34c4.8 0 8.76 3.35 8.86 7.6v4.33h4.2a3.24 3.22 0 0 1 3.23 3.1V67.12a3.24 3.22 0 0 1-3.24 3.22H11.24A3.24 3.22 0 0 1 8 67.13V49.14a3.24 3.22 0 0 1 3.24-3.21h3.62v-4.17c0-4.32 4-7.76 8.85-7.76Zm13.05 14.2H11.24a.95.95 0 0 0-.95.94v17.99c0 .52.42.94.95.94h25.52c.53 0 .95-.42.95-.94V49.14a.95.95 0 0 0-.95-.94zM20.7 53.87a1 1 0 0 1 .02 1.4 4.58 4.55 0 0 0-1.32 3.2 4.6 4.57 0 0 0 9.2 0 4.58 4.55 0 0 0-1.29-3.16 1 1 0 1 1 1.44-1.38 6.58 6.54 0 0 1 1.85 4.55 6.58 6.58 0 0 1-6.6 6.55 6.58 6.58 0 0 1-6.6-6.55 6.58 6.54 0 0 1 1.89-4.6 1 1 0 0 1 1.41 0zM24 51.6a1.14 1.14 0 0 1 1.14 1.14v5.11a1.14 1.14 0 1 1-2.28 0v-5.1A1.14 1.14 0 0 1 24 51.6zm-.29-15.33c-3.6 0-6.47 2.42-6.56 5.34v4.32h13.14v-4.17c0-3-2.91-5.49-6.58-5.49z"/></g></svg>