<svg xmlns="http://www.w3.org/2000/svg" xmlns:xlink="http://www.w3.org/1999/xlink" viewBox="0 0 150 120"><defs><path id="a" d="M0 0h150v60H0Z"/><mask id="c" fill="#fff"><path d="M0 60h150V0H0Z"/></mask></defs><g fill="none" fill-rule="evenodd" opacity=".6" transform="matrix(1 0 0 -1 0 120)"><mask id="b" fill="#fff"><use xlink:href="#a" width="100%" height="100%" transform="matrix(1 0 0 -1 0 60)"/></mask><g mask="url(#b)"><g transform="translate(-11)"><path stroke="navy" stroke-dasharray="1 8" stroke-linecap="round" stroke-linejoin="round" stroke-width="3" d="m126.1 2.5.27 57M25.1 27.5v32" opacity=".25"/><path stroke="navy" stroke-dasharray="1 8" stroke-linecap="round" stroke-linejoin="round" stroke-width="3" d="M53.5 5.5v33m26.6-21v41m-68.5-16h100.5m-100-31h134m2 2 .22 46"/><path fill="#f88e86" d="m137.03 38.2 11.29-11.3 11.29 11.3-11.3 11.32z"/><circle cx="103.61" cy="12" r="12" fill="#94cf96"/><rect width="25.95" height="11" x="63" y="37" fill="#ffc107" rx="5.5"/><rect width="25.95" height="11" y="6" fill="#f88e86" rx="5.5"/></g></g></g><g fill="none" fill-rule="evenodd" mask="url(#c)" transform="matrix(1 0 0 -1 0 60)"><g transform="matrix(1 0 0 -1 0 60)"><path stroke="navy" stroke-dasharray="1 8" stroke-linecap="round" stroke-linejoin="round" stroke-width="3" d="M115 28.5v31" opacity=".25"/><path stroke="navy" stroke-dasharray="1 8" stroke-linecap="round" stroke-linejoin="round" stroke-width="3" d="M69 1.5v58"/><path stroke="navy" stroke-dasharray="1 8" stroke-linecap="round" stroke-linejoin="round" stroke-width="3" d="m15 38.5-.5 21" opacity=".25"/><path stroke="navy" stroke-dasharray="1 8" stroke-linecap="round" stroke-linejoin="round" stroke-width="3" d="M0 47.5h53"/><path stroke="navy" stroke-dasharray="1 8" stroke-linecap="round" stroke-linejoin="round" stroke-width="3" d="M21 33.5h68" opacity=".25"/><path stroke="navy" stroke-dasharray="1 8" stroke-linecap="round" stroke-linejoin="round" stroke-width="3" d="M.5 12.5h132.51m3.99 4v43"/><circle cx="27.5" cy="12" r="12" fill="#66dbff"/><path fill="#ffc107" d="M89.21 13 100.5 1.69 111.79 13 100.5 24.31Z"/><rect width="26" height="11" x="6.5" y="42" fill="#94cf96" rx="5.5"/></g></g></svg>