<svg xmlns="http://www.w3.org/2000/svg" xmlns:xlink="http://www.w3.org/1999/xlink" viewBox="0 0 150 120"><defs><path id="a" d="M0 0h150v60H0Z"/><mask id="c" fill="#fff"><path d="M0 60h150V0H0Z"/></mask></defs><g fill="none" fill-rule="evenodd" opacity=".6" transform="matrix(1 0 0 -1 0 119.85)"><mask id="b" fill="#fff"><use xlink:href="#a" width="100%" height="100%" transform="matrix(1 0 0 -1 0 60)"/></mask><g mask="url(#b)"><g transform="matrix(-1 0 0 1 153.06 1)"><path stroke="navy" stroke-dasharray="1 8" stroke-linecap="round" stroke-linejoin="round" stroke-width="3" d="m119.26 1.5.24 56m-40.24-35 .24 35m-29.44-56 .44 56" opacity=".25"/><path stroke="navy" stroke-dasharray="1 8" stroke-linecap="round" stroke-linejoin="round" stroke-width="3" d="m101.06 16.5.44 23m-96.97 1h96.53m-96.03-29h133.03m3 5 .18 41"/><ellipse cx="11.97" cy="12" fill="#ffc107" rx="11.97" ry="12"/><rect width="26" height="11" x="128.56" y="31" fill="#f88e86" rx="5.5" transform="rotate(90 141.56 36.5)"/><rect width="25.95" height="11" x="29.92" y="35" fill="#94cf96" rx="5.5"/><path fill="#66dbff" d="m68.24 62.8 11.32-11.32 11.31 11.31-11.31 11.32Z"/></g></g></g><g fill="none" fill-rule="evenodd" mask="url(#c)" transform="matrix(1 0 0 -1 0 59.02)"><g transform="rotate(180 80.4 29.5)"><path stroke="navy" stroke-dasharray="1 8" stroke-linecap="round" stroke-linejoin="round" stroke-width="3" d="M149.13 16.5v42"/><path stroke="navy" stroke-dasharray="1 8" stroke-linecap="round" stroke-linejoin="round" stroke-width="3" d="M127.13 33.5v25M58.13 1.5v55M17.31 27.5h105.82" opacity=".25"/><path stroke="navy" stroke-dasharray="1 8" stroke-linecap="round" stroke-linejoin="round" stroke-width="3" d="M17.31 44.5h34.82m-42-38h77m0 4 .18 49"/><circle cx="148.81" cy="39" r="12" fill="#94cf96"/><rect width="26" height="11" x="51.81" fill="#ffc107" rx="5.5"/><path fill="#66dbff" d="m76 56.2 11.31-11.3 11.32 11.3L87.3 67.53Z"/><path fill="#f88e86" d="M.02 44.31 11.32 33 22.6 44.31 11.31 55.63Z"/></g></g></svg>