<svg xmlns="http://www.w3.org/2000/svg" viewBox="0 0 62 80"><rect width="40" height="8" x="11" y="72" fill="#e5e5f2" rx="4"/><path fill="navy" fill-rule="nonzero" d="M30.5 26a17.5 17.5 0 1 1 0 35 17.5 17.5 0 0 1 0-35Zm0 3a14.5 14.5 0 1 0 0 29 14.5 14.5 0 0 0 0-29zm-.24 19.64c.51 0 .95.13 1.32.4.37.28.55.75.55 1.42 0 .65-.18 1.11-.55 1.4-.37.29-.8.43-1.32.43s-.96-.14-1.33-.43c-.37-.29-.56-.75-.56-1.4 0-.67.19-1.14.56-1.41.37-.28.81-.41 1.33-.41zM54 0a8 8 0 0 1 8 8v32a8 8 0 0 1-8 8h-3.5a20.48 20.48 0 0 0 .45-3H54a5 5 0 0 0 5-4.78V15H3v25a5 5 0 0 0 4.78 5h2.27a20.48 20.48 0 0 0 .45 3H8a8 8 0 0 1-8-8V8a8 8 0 0 1 8-8ZM30.9 36.07c1.53 0 2.72.37 3.56 1.1a3.55 3.55 0 0 1 1.26 2.8c0 .6-.1 1.12-.28 1.56-.2.44-.48.85-.86 1.23-.39.37-.86.77-1.44 1.18-.43.32-.76.58-.99.8a1.8 1.8 0 0 0-.46.64 2.12 2.12 0 0 0-.13.77v.64h-2.84v-.8c0-.48.06-.91.2-1.29a3.34 3.34 0 0 1 .66-1.07c.3-.34.7-.7 1.19-1.05.44-.32.8-.6 1.07-.85s.46-.5.59-.75c.12-.24.19-.52.19-.84 0-.46-.18-.82-.52-1.06a2.46 2.46 0 0 0-1.44-.37c-.61 0-1.23.1-1.83.3-.6.19-1.22.44-1.84.76l-1.17-2.36a11.29 11.29 0 0 1 2.33-.97 9.7 9.7 0 0 1 2.75-.37zM54 3H8a5 5 0 0 0-5 4.78V12h56V8a5 5 0 0 0-4.78-5zM29.5 6a1.5 1.5 0 0 1 0 3h-20a1.5 1.5 0 0 1 0-3z"/></svg>